<svg xmlns="http://www.w3.org/2000/svg" viewBox="0 0 1800 400"><defs><style>.cls-1{fill:#6ccfb7;}.cls-2,.cls-3{fill:none;stroke-miterlimit:10;}.cls-2{stroke:#000;stroke-width:8px;}.cls-3{stroke:#6ccfb7;stroke-width:6px;}</style></defs><title>ON-Limited</title><g id="Layer_2" data-name="Layer 2"><path d="M883.79,113.85h31.49V263.51h79.84V290H883.79Z"/><path d="M1016.8,137.16a16.57,16.57,0,0,1,0-23.49,16.34,16.34,0,0,1,12-4.83,16.53,16.53,0,0,1,12.09,4.83,16.57,16.57,0,0,1,0,23.49,16.42,16.42,0,0,1-12.09,4.89A16.24,16.24,0,0,1,1016.8,137.16Zm-3.17,23.44H1044V290h-30.39Z"/><path d="M1067.78,160.6h30.27v20.75h.73a35.13,35.13,0,0,1,13.55-17,39.09,39.09,0,0,1,22.34-6.4,40.51,40.51,0,0,1,16.24,3.11,33.88,33.88,0,0,1,12.26,8.91,35.67,35.67,0,0,1,7.39,14.1h.61a39.49,39.49,0,0,1,9.09-13.86,42.55,42.55,0,0,1,13.92-9,45.75,45.75,0,0,1,17.27-3.23q12.83,0,22.28,5.43a38.25,38.25,0,0,1,14.77,15.13q5.31,9.71,5.31,22.77V290h-30.39V208.7q0-12-6-18.56t-17.22-6.59a24.42,24.42,0,0,0-12.88,3.36,23.12,23.12,0,0,0-8.66,9.34,29.36,29.36,0,0,0-3.12,13.79v80H1146V207.11q0-11-6.16-17.27t-16.79-6.29a23.77,23.77,0,0,0-12.94,3.54,25,25,0,0,0-8.84,9.64,29.5,29.5,0,0,0-3.24,14V290h-30.27Z"/><path d="M1280.13,137.16a16.57,16.57,0,0,1,0-23.49,17.38,17.38,0,0,1,24,0,16.57,16.57,0,0,1,0,23.49,17.23,17.23,0,0,1-24,0ZM1277,160.6h30.39V290H1277Z"/><path d="M1349.12,283.77q-9.84-8.79-9.83-28.81V184H1321V160.6h18.31V127.76h30.88V160.6h24V184h-24v68.48q0,9.41,4.21,13t12.4,3.6a40.81,40.81,0,0,0,4.08-.18c1.18-.12,2.3-.23,3.36-.31v22.83c-1.79.24-4,.49-6.53.73s-5.43.37-8.61.37Q1359,292.56,1349.12,283.77Z"/><path d="M1436.47,284.38a53.93,53.93,0,0,1-21.42-23.19q-7.46-15-7.45-35.53v-.12q0-20.39,7.51-35.58a56.4,56.4,0,0,1,21.12-23.62q13.61-8.43,32.16-8.42t31.92,8.11a53.89,53.89,0,0,1,20.76,22.77q7.26,14.64,7.26,34.18v9.76H1422.62V212.48h91.18l-14.65,18.92V219.68q0-12.69-3.9-21.12a28.41,28.41,0,0,0-10.74-12.63,29.4,29.4,0,0,0-15.75-4.21,30,30,0,0,0-16,4.33,29,29,0,0,0-11,12.88q-4,8.55-4,20.75V231.4q0,11.85,4,20.2A29.19,29.19,0,0,0,1453,264.42a32.94,32.94,0,0,0,17.46,4.46,34.62,34.62,0,0,0,13.3-2.38,28.13,28.13,0,0,0,9.46-6.17,21.07,21.07,0,0,0,5.19-8.18l.25-.85H1527l-.25,1.34a47.93,47.93,0,0,1-17.33,27.47,56.23,56.23,0,0,1-17.09,9.09,69.63,69.63,0,0,1-22.46,3.36Q1450.45,292.56,1436.47,284.38Z"/><path d="M1565.45,284.44q-12-8.12-18.55-23.25t-6.53-35.89v-.12q0-20.88,6.59-36t18.55-23.2q12-8.11,28.2-8.11a44.68,44.68,0,0,1,24.36,6.65,42.68,42.68,0,0,1,16,18.25h.73v-69h30.27V290h-30.27V268h-.73a42.44,42.44,0,0,1-15.87,18q-10.38,6.53-24.42,6.53Q1577.48,292.56,1565.45,284.44Zm54.14-22.52a33.46,33.46,0,0,0,11.23-14.53q4-9.39,4-22.09v-.12q0-12.7-4.09-22a34.16,34.16,0,0,0-11.23-14.46,27.6,27.6,0,0,0-16.54-5.13,28.45,28.45,0,0,0-16.91,5.07,32.08,32.08,0,0,0-11,14.34q-3.86,9.27-3.85,22.22v.12q0,12.81,3.85,22.21a32,32,0,0,0,11,14.47,28.45,28.45,0,0,0,16.91,5.07A27.87,27.87,0,0,0,1619.59,261.92Z"/><path class="cls-1" d="M606.79,113.85h28.32L738.14,262l-29.79-24.66h13.31V113.85h31.25V290H724.83L621.68,141.44,651.47,166H638V290H606.79Z"/><path class="cls-1" d="M781.67,205H860.4v26.86H781.67Z"/></g><g id="Layer_3" data-name="Layer 3"><path class="cls-2" d="M465.5,76a124.5,124.5,0,0,1,0,249"/><path class="cls-2" d="M230,324a124.5,124.5,0,0,1,0-249"/><line class="cls-2" x1="230" y1="75" x2="472" y2="76"/><line class="cls-2" x1="230" y1="324" x2="475" y2="325"/><path class="cls-3" d="M366.2,235.63A105.11,105.11,0,0,1,447.69,96.41"/><path class="cls-1" d="M372.42,232.84a6.77,6.77,0,1,1-8.76-3.85A6.78,6.78,0,0,1,372.42,232.84Z"/><path class="cls-1" d="M448.31,103.2a6.77,6.77,0,1,0-7.64-5.76A6.77,6.77,0,0,0,448.31,103.2Z"/><path class="cls-3" d="M547,265.63a105,105,0,0,1-165-1.33"/><path class="cls-1" d="M541.35,261.79a6.77,6.77,0,1,1,1.29,9.49A6.77,6.77,0,0,1,541.35,261.79Z"/><path class="cls-1" d="M387.67,260.56a6.77,6.77,0,1,0-1.46,9.46A6.77,6.77,0,0,0,387.67,260.56Z"/><path class="cls-3" d="M481.25,96.25a105.1,105.1,0,0,1,82.92,138.34"/><path class="cls-1" d="M480.71,103a6.77,6.77,0,1,1,7.58-5.84A6.78,6.78,0,0,1,480.71,103Z"/><circle class="cls-1" cx="564.26" cy="234.25" r="6.77" transform="translate(166.31 697.82) rotate(-71.9)"/><path class="cls-3" d="M493.76,282.66a87.57,87.57,0,0,1-114.91-67.28"/><path class="cls-1" d="M491,276.42a6.77,6.77,0,1,1-3.9,8.74A6.77,6.77,0,0,1,491,276.42Z"/><path class="cls-1" d="M385.63,214.74a6.77,6.77,0,1,0-5.73,7.67A6.78,6.78,0,0,0,385.63,214.74Z"/><path class="cls-3" d="M523.55,135a87.5,87.5,0,0,1-.9,130.85"/><path class="cls-1" d="M519.41,140.39a6.77,6.77,0,1,1,9.54-.79A6.78,6.78,0,0,1,519.41,140.39Z"/><path class="cls-1" d="M518.58,260.35a6.77,6.77,0,1,0,9.52.92A6.76,6.76,0,0,0,518.58,260.35Z"/><path class="cls-3" d="M378.93,184.13a87.6,87.6,0,0,1,115.3-66.63"/><path class="cls-1" d="M385.71,184.81a6.77,6.77,0,1,1-5.69-7.7A6.77,6.77,0,0,1,385.71,184.81Z"/><path class="cls-1" d="M491.43,123.71a6.76,6.76,0,1,0-3.86-8.76A6.77,6.77,0,0,0,491.43,123.71Z"/></g></svg>